<svg width="1200" height="430" viewBox="0 0 1200 430" xmlns="http://www.w3.org/2000/svg"><defs><linearGradient id="bg" x1="0" y1="0" x2="1200" y2="430"><stop stop-color="#050509"/><stop offset=".48" stop-color="#0A0A16"/><stop offset="1" stop-color="#03030A"/></linearGradient><linearGradient id="acc" x1="80" y1="60" x2="1120" y2="380"><stop stop-color="#8B5CF6"/><stop offset=".5" stop-color="#22D3EE"/><stop offset="1" stop-color="#A78BFA"/></linearGradient><pattern id="grid" width="32" height="32" patternUnits="userSpaceOnUse"><path d="M32 0H0V32" fill="none" stroke="#A78BFA" stroke-opacity=".07"/></pattern><radialGradient id="v"><stop stop-color="#7C3AED" stop-opacity=".28"/><stop offset="1" stop-color="#7C3AED" stop-opacity="0"/></radialGradient><radialGradient id="c"><stop stop-color="#06B6D4" stop-opacity=".22"/><stop offset="1" stop-color="#06B6D4" stop-opacity="0"/></radialGradient></defs><rect width="1200" height="430" rx="28" fill="url(#bg)"/><rect width="1200" height="430" rx="28" fill="url(#grid)"/><ellipse cx="180" cy="90" rx="360" ry="230" fill="url(#v)"><animate attributeName="cx" values="180;270;180" dur="9s" repeatCount="indefinite"/></ellipse><ellipse cx="1010" cy="325" rx="330" ry="190" fill="url(#c)"><animate attributeName="cx" values="1010;940;1010" dur="8s" repeatCount="indefinite"/></ellipse><circle cx="120" cy="70" r="2" fill="#C4B5FD"><animate attributeName="cy" values="70;100;70" dur="4.5s" repeatCount="indefinite"/></circle><circle cx="1030" cy="90" r="1.6" fill="#67E8F9"><animate attributeName="cy" values="90;124;90" dur="5.5s" repeatCount="indefinite"/></circle><circle cx="1080" cy="270" r="2" fill="#A78BFA"><animate attributeName="cx" values="1080;1040;1080" dur="6s" repeatCount="indefinite"/></circle><path d="M0 350C230 275 350 415 560 338C790 255 850 370 1200 270" stroke="url(#acc)" stroke-opacity=".16" stroke-width="1.5"/><g transform="translate(72 66)"><rect width="140" height="31" rx="15.5" fill="#11101C" stroke="#8B5CF6" stroke-opacity=".35"/><circle cx="18" cy="15.5" r="4" fill="#22D3EE"><animate attributeName="opacity" values="1;.25;1" dur="2s" repeatCount="indefinite"/></circle><text x="31" y="20" fill="#DDD6FE" font-family="Arial,sans-serif" font-size="12" font-weight="700">SYSTEM ONLINE</text></g><text x="72" y="176" fill="#fff" font-family="Arial,sans-serif" font-size="56" font-weight="800">SWASTIK SINGH</text><text x="75" y="214" fill="#A5B4FC" font-family="Arial,sans-serif" font-size="20" font-weight="700" letter-spacing="3">FULL-STACK DEVELOPER · SYSTEM BUILDER</text><text x="75" y="260" fill="#CBD5E1" font-family="Arial,sans-serif" font-size="17">I build production-oriented applications, developer tools,</text><text x="75" y="286" fill="#CBD5E1" font-family="Arial,sans-serif" font-size="17">and systems where correctness matters as much as the interface.</text><g transform="translate(75 325)"><rect width="310" height="42" rx="21" fill="#0B0B14" stroke="#8B5CF6" stroke-opacity=".3"/><text x="18" y="27" fill="#94A3B8" font-family="monospace" font-size="13">$</text><text x="34" y="27" fill="#E2E8F0" font-family="monospace" font-size="13">ship --build --repeat</text><rect x="224" y="12" width="8" height="17" rx="1" fill="#22D3EE"><animate attributeName="opacity" values="1;0;1" dur="1s" repeatCount="indefinite"/></rect></g><g transform="translate(865 66)"><rect width="250" height="265" rx="22" fill="#090914" fill-opacity=".82" stroke="#fff" stroke-opacity=".09"/><circle cx="28" cy="30" r="5" fill="#EF4444"/><circle cx="46" cy="30" r="5" fill="#F59E0B"/><circle cx="64" cy="30" r="5" fill="#22C55E"/><text x="24" y="72" fill="#64748B" font-family="monospace" font-size="12">profile.runtime</text><text x="24" y="106" fill="#A78BFA" font-family="monospace" font-size="13">focus:</text><text x="91" y="106" fill="#E2E8F0" font-family="monospace" font-size="13">full-stack</text><text x="24" y="136" fill="#22D3EE" font-family="monospace" font-size="13">building:</text><text x="24" y="164" fill="#CBD5E1" font-family="monospace" font-size="12">VulnTrack</text><text x="24" y="187" fill="#CBD5E1" font-family="monospace" font-size="12">Tenora</text><text x="24" y="210" fill="#CBD5E1" font-family="monospace" font-size="12">AI Interview Platform</text><text x="24" y="233" fill="#CBD5E1" font-family="monospace" font-size="12">Email Job Scheduler</text><rect x="24" y="256" width="92" height="3" rx="1.5" fill="#8B5CF6"><animate attributeName="width" values="34;92;34" dur="3.5s" repeatCount="indefinite"/></rect></g><rect x=".75" y=".75" width="1198.5" height="428.5" rx="27.25" fill="none" stroke="url(#acc)" stroke-opacity=".22"/></svg>
