<svg width="1200" height="520" viewBox="0 0 1200 520" xmlns="http://www.w3.org/2000/svg"><defs><linearGradient id="bg" x1="0" y1="0" x2="1200" y2="520"><stop stop-color="#06060B"/><stop offset="1" stop-color="#0B0A16"/></linearGradient><linearGradient id="p"><stop stop-color="#8B5CF6"/><stop offset="1" stop-color="#22D3EE"/></linearGradient></defs><rect width="1200" height="520" rx="26" fill="url(#bg)"/><text x="46" y="44" fill="#64748B" font-family="monospace" font-size="12">PROJECT TELEMETRY / LIVE BUILD MATRIX</text><g transform="translate(36 66)"><rect width="548" height="188" rx="18" fill="#0D0D16" stroke="#8B5CF6" stroke-opacity=".25"/><circle cx="26" cy="28" r="5" fill="#22D3EE"><animate attributeName="r" values="4;7;4" dur="2s" repeatCount="indefinite"/></circle><text x="43" y="33" fill="#fff" font-family="Arial" font-size="20" font-weight="800">VULNTRACK</text><text x="24" y="64" fill="#94A3B8" font-family="Arial" font-size="13">Cybersecurity vulnerability management</text><text x="24" y="92" fill="#64748B" font-family="monospace" font-size="11">RISK PIPELINE</text><rect x="24" y="104" width="470" height="9" rx="4.5" fill="#171522"/><rect x="24" y="104" width="110" height="9" rx="4.5" fill="url(#p)"><animate attributeName="width" values="110;410;110" dur="5s" repeatCount="indefinite"/></rect><text x="24" y="143" fill="#22D3EE" font-family="monospace" font-size="11">scan → ingest → prioritize → remediate → verify</text><text x="24" y="168" fill="#A78BFA" font-family="monospace" font-size="11">RBAC · audit logs · analytics · AI insights</text></g><g transform="translate(616 66)"><rect width="548" height="188" rx="18" fill="#0D0D16" stroke="#22D3EE" stroke-opacity=".22"/><circle cx="26" cy="28" r="5" fill="#A78BFA"><animate attributeName="r" values="4;7;4" dur="2.4s" repeatCount="indefinite"/></circle><text x="43" y="33" fill="#fff" font-family="Arial" font-size="20" font-weight="800">TENORA</text><text x="24" y="64" fill="#94A3B8" font-family="Arial" font-size="13">Multi-tenant property billing SaaS</text><text x="24" y="92" fill="#64748B" font-family="monospace" font-size="11">ENGINEERING CORE</text><rect x="24" y="104" width="470" height="9" rx="4.5" fill="#171522"/><rect x="24" y="104" width="390" height="9" rx="4.5" fill="url(#p)"><animate attributeName="width" values="390;160;390" dur="5.5s" repeatCount="indefinite"/></rect><text x="24" y="143" fill="#22D3EE" font-family="monospace" font-size="11">tenant isolation · idempotency · concurrency</text><text x="24" y="168" fill="#A78BFA" font-family="monospace" font-size="11">webhooks · payments · reconciliation</text></g><g transform="translate(36 278)"><rect width="548" height="188" rx="18" fill="#0D0D16" stroke="#A78BFA" stroke-opacity=".22"/><circle cx="26" cy="28" r="5" fill="#22D3EE"><animate attributeName="opacity" values="1;.25;1" dur="1.7s" repeatCount="indefinite"/></circle><text x="43" y="33" fill="#fff" font-family="Arial" font-size="20" font-weight="800">AI INTERVIEW PLATFORM</text><text x="24" y="64" fill="#94A3B8" font-family="Arial" font-size="13">AI-assisted interview workflows</text><text x="24" y="92" fill="#64748B" font-family="monospace" font-size="11">INTERACTION LOOP</text><circle cx="70" cy="132" r="12" fill="#8B5CF6"><animate attributeName="cx" values="70;160;250;340;430;70" dur="7s" repeatCount="indefinite"/></circle><line x1="70" y1="132" x2="470" y2="132" stroke="#8B5CF6" stroke-opacity=".25" stroke-dasharray="5 8"/><text x="24" y="168" fill="#22D3EE" font-family="monospace" font-size="11">prompt → response → evaluation → feedback</text></g><g transform="translate(616 278)"><rect width="548" height="188" rx="18" fill="#0D0D16" stroke="#22D3EE" stroke-opacity=".22"/><circle cx="26" cy="28" r="5" fill="#A78BFA"><animate attributeName="opacity" values="1;.25;1" dur="1.9s" repeatCount="indefinite"/></circle><text x="43" y="33" fill="#fff" font-family="Arial" font-size="20" font-weight="800">EMAIL JOB SCHEDULER</text><text x="24" y="64" fill="#94A3B8" font-family="Arial" font-size="13">Queue-driven scheduling infrastructure</text><text x="24" y="92" fill="#64748B" font-family="monospace" font-size="11">QUEUE DEPTH</text><g transform="translate(24 106)"><rect x="0" y="0" width="16" height="28" rx="3" fill="#8B5CF6"><animate attributeName="height" values="12;28;12" dur="2s" repeatCount="indefinite"/></rect><rect x="27" y="7" width="16" height="21" rx="3" fill="#A78BFA"><animate attributeName="height" values="22;8;22" dur="2.3s" repeatCount="indefinite"/></rect><rect x="54" y="3" width="16" height="25" rx="3" fill="#22D3EE"><animate attributeName="height" values="7;25;7" dur="1.8s" repeatCount="indefinite"/></rect><rect x="81" y="10" width="16" height="18" rx="3" fill="#67E8F9"><animate attributeName="height" values="18;5;18" dur="2.1s" repeatCount="indefinite"/></rect></g><text x="24" y="168" fill="#22D3EE" font-family="monospace" font-size="11">TypeScript · BullMQ · Redis · workers</text></g><rect x=".75" y=".75" width="1198.5" height="518.5" rx="25.25" fill="none" stroke="url(#p)" stroke-opacity=".15"/></svg>
